<mxfile host="app.diagrams.net" modified="2023-05-02T20:27:55.667Z" agent="Mozilla/5.0 (Windows NT 10.0; Win64; x64) AppleWebKit/537.36 (KHTML, like Gecko) Chrome/112.0.0.0 Safari/537.36" etag="-jgpZVdW1D7p4SFX9Wk7" version="21.2.3" type="github">
  <diagram name="Page-1" id="Ute1aCPzgfMwWKsMdvKK">
    <mxGraphModel dx="1034" dy="430" grid="1" gridSize="10" guides="1" tooltips="1" connect="1" arrows="1" fold="1" page="1" pageScale="1" pageWidth="1600" pageHeight="1200" math="0" shadow="0">
      <root>
        <mxCell id="0" />
        <mxCell id="1" parent="0" />
        <mxCell id="EnFBxIm6WWmgzFql9sqj-2" value="" style="rounded=0;whiteSpace=wrap;html=1;" vertex="1" parent="1">
          <mxGeometry x="50" y="720" width="300" height="100" as="geometry" />
        </mxCell>
        <mxCell id="EnFBxIm6WWmgzFql9sqj-4" value="Router" style="rounded=1;whiteSpace=wrap;html=1;" vertex="1" parent="1">
          <mxGeometry x="60" y="790" width="60" height="20" as="geometry" />
        </mxCell>
        <mxCell id="EnFBxIm6WWmgzFql9sqj-5" value="Components" style="rounded=1;whiteSpace=wrap;html=1;" vertex="1" parent="1">
          <mxGeometry x="130" y="790" width="70" height="20" as="geometry" />
        </mxCell>
        <mxCell id="EnFBxIm6WWmgzFql9sqj-6" value="Service" style="rounded=1;whiteSpace=wrap;html=1;" vertex="1" parent="1">
          <mxGeometry x="210" y="790" width="70" height="20" as="geometry" />
        </mxCell>
        <mxCell id="EnFBxIm6WWmgzFql9sqj-7" value="HTTP" style="rounded=1;whiteSpace=wrap;html=1;" vertex="1" parent="1">
          <mxGeometry x="290" y="790" width="50" height="20" as="geometry" />
        </mxCell>
        <mxCell id="EnFBxIm6WWmgzFql9sqj-8" value="Axios" style="rounded=1;whiteSpace=wrap;html=1;" vertex="1" parent="1">
          <mxGeometry x="290" y="760" width="50" height="20" as="geometry" />
        </mxCell>
        <mxCell id="EnFBxIm6WWmgzFql9sqj-9" value="VueJS" style="rounded=1;whiteSpace=wrap;html=1;" vertex="1" parent="1">
          <mxGeometry x="60" y="760" width="60" height="20" as="geometry" />
        </mxCell>
        <mxCell id="EnFBxIm6WWmgzFql9sqj-11" value="" style="endArrow=classic;html=1;rounded=0;exitX=1;exitY=0.5;exitDx=0;exitDy=0;" edge="1" parent="1" source="EnFBxIm6WWmgzFql9sqj-4">
          <mxGeometry width="50" height="50" relative="1" as="geometry">
            <mxPoint x="220" y="810" as="sourcePoint" />
            <mxPoint x="130" y="800" as="targetPoint" />
          </mxGeometry>
        </mxCell>
        <mxCell id="EnFBxIm6WWmgzFql9sqj-13" value="" style="rounded=0;whiteSpace=wrap;html=1;" vertex="1" parent="1">
          <mxGeometry x="360" y="720" width="80" height="100" as="geometry" />
        </mxCell>
        <mxCell id="EnFBxIm6WWmgzFql9sqj-15" value="Model" style="rounded=1;whiteSpace=wrap;html=1;" vertex="1" parent="1">
          <mxGeometry x="367.5" y="760" width="55" height="20" as="geometry" />
        </mxCell>
        <mxCell id="EnFBxIm6WWmgzFql9sqj-16" value="Rest Framework" style="rounded=1;whiteSpace=wrap;html=1;" vertex="1" parent="1">
          <mxGeometry x="367.5" y="785" width="65" height="30" as="geometry" />
        </mxCell>
        <mxCell id="EnFBxIm6WWmgzFql9sqj-17" value="" style="endArrow=classic;html=1;rounded=0;exitX=1;exitY=0.5;exitDx=0;exitDy=0;entryX=0;entryY=0.5;entryDx=0;entryDy=0;" edge="1" parent="1" source="EnFBxIm6WWmgzFql9sqj-7" target="EnFBxIm6WWmgzFql9sqj-16">
          <mxGeometry width="50" height="50" relative="1" as="geometry">
            <mxPoint x="480" y="810" as="sourcePoint" />
            <mxPoint x="530" y="760" as="targetPoint" />
          </mxGeometry>
        </mxCell>
        <mxCell id="EnFBxIm6WWmgzFql9sqj-18" value="" style="endArrow=classic;html=1;rounded=0;exitX=0;exitY=0.75;exitDx=0;exitDy=0;entryX=1;entryY=0.75;entryDx=0;entryDy=0;" edge="1" parent="1" source="EnFBxIm6WWmgzFql9sqj-16" target="EnFBxIm6WWmgzFql9sqj-7">
          <mxGeometry width="50" height="50" relative="1" as="geometry">
            <mxPoint x="480" y="810" as="sourcePoint" />
            <mxPoint x="530" y="760" as="targetPoint" />
          </mxGeometry>
        </mxCell>
        <mxCell id="EnFBxIm6WWmgzFql9sqj-19" value="" style="rounded=0;whiteSpace=wrap;html=1;" vertex="1" parent="1">
          <mxGeometry x="450" y="720" width="80" height="100" as="geometry" />
        </mxCell>
        <mxCell id="EnFBxIm6WWmgzFql9sqj-22" value="" style="rounded=0;whiteSpace=wrap;html=1;" vertex="1" parent="1">
          <mxGeometry x="340" y="630" width="190" height="70" as="geometry" />
        </mxCell>
        <mxCell id="EnFBxIm6WWmgzFql9sqj-23" value="Python Automatic Data load process" style="rounded=1;whiteSpace=wrap;html=1;" vertex="1" parent="1">
          <mxGeometry x="351.92" y="660" width="120" height="30" as="geometry" />
        </mxCell>
        <mxCell id="EnFBxIm6WWmgzFql9sqj-24" value="" style="sketch=0;outlineConnect=0;fontColor=#232F3E;gradientColor=none;fillColor=#3F8624;strokeColor=none;dashed=0;verticalLabelPosition=bottom;verticalAlign=top;align=center;html=1;fontSize=12;fontStyle=0;aspect=fixed;pointerEvents=1;shape=mxgraph.aws4.bucket;" vertex="1" parent="1">
          <mxGeometry x="487.5" y="645" width="28.85" height="30" as="geometry" />
        </mxCell>
        <mxCell id="EnFBxIm6WWmgzFql9sqj-25" value="AWS S3" style="text;strokeColor=none;align=center;fillColor=none;html=1;verticalAlign=middle;whiteSpace=wrap;rounded=0;" vertex="1" parent="1">
          <mxGeometry x="471.92" y="670" width="60" height="30" as="geometry" />
        </mxCell>
        <mxCell id="EnFBxIm6WWmgzFql9sqj-26" value="Scheduled Data load" style="text;strokeColor=none;align=center;fillColor=none;html=1;verticalAlign=middle;whiteSpace=wrap;rounded=0;" vertex="1" parent="1">
          <mxGeometry x="325" y="630" width="170" height="30" as="geometry" />
        </mxCell>
        <mxCell id="EnFBxIm6WWmgzFql9sqj-27" value="Heroku DynamoDB" style="text;strokeColor=none;align=center;fillColor=none;html=1;verticalAlign=middle;whiteSpace=wrap;rounded=0;" vertex="1" parent="1">
          <mxGeometry x="456.35" y="720" width="60" height="30" as="geometry" />
        </mxCell>
        <mxCell id="EnFBxIm6WWmgzFql9sqj-30" value="Heroku Application Server" style="text;strokeColor=none;align=center;fillColor=none;html=1;verticalAlign=middle;whiteSpace=wrap;rounded=0;" vertex="1" parent="1">
          <mxGeometry x="40" y="720" width="180" height="30" as="geometry" />
        </mxCell>
        <mxCell id="EnFBxIm6WWmgzFql9sqj-31" value="Django" style="text;strokeColor=none;align=center;fillColor=none;html=1;verticalAlign=middle;whiteSpace=wrap;rounded=0;" vertex="1" parent="1">
          <mxGeometry x="370" y="720" width="60" height="30" as="geometry" />
        </mxCell>
        <mxCell id="EnFBxIm6WWmgzFql9sqj-32" value="" style="shape=datastore;whiteSpace=wrap;html=1;" vertex="1" parent="1">
          <mxGeometry x="475" y="760" width="30" height="40" as="geometry" />
        </mxCell>
        <mxCell id="EnFBxIm6WWmgzFql9sqj-33" value="PostgreSQL" style="text;strokeColor=none;align=center;fillColor=none;html=1;verticalAlign=middle;whiteSpace=wrap;rounded=0;" vertex="1" parent="1">
          <mxGeometry x="460" y="800" width="60" height="20" as="geometry" />
        </mxCell>
        <mxCell id="EnFBxIm6WWmgzFql9sqj-35" value="" style="edgeStyle=none;orthogonalLoop=1;jettySize=auto;html=1;rounded=0;shape=link;" edge="1" parent="1">
          <mxGeometry width="80" relative="1" as="geometry">
            <mxPoint x="450" y="750" as="sourcePoint" />
            <mxPoint x="530" y="750" as="targetPoint" />
            <Array as="points" />
          </mxGeometry>
        </mxCell>
        <mxCell id="EnFBxIm6WWmgzFql9sqj-36" value="" style="edgeStyle=none;orthogonalLoop=1;jettySize=auto;html=1;rounded=0;shape=link;" edge="1" parent="1">
          <mxGeometry width="80" relative="1" as="geometry">
            <mxPoint x="360" y="750" as="sourcePoint" />
            <mxPoint x="440" y="750" as="targetPoint" />
            <Array as="points" />
          </mxGeometry>
        </mxCell>
        <mxCell id="EnFBxIm6WWmgzFql9sqj-38" value="" style="edgeStyle=none;orthogonalLoop=1;jettySize=auto;html=1;rounded=0;shape=link;" edge="1" parent="1">
          <mxGeometry width="80" relative="1" as="geometry">
            <mxPoint x="350" y="750" as="sourcePoint" />
            <mxPoint x="50" y="750" as="targetPoint" />
            <Array as="points" />
          </mxGeometry>
        </mxCell>
        <mxCell id="EnFBxIm6WWmgzFql9sqj-39" value="" style="edgeStyle=none;orthogonalLoop=1;jettySize=auto;html=1;rounded=0;exitX=0.912;exitY=1.2;exitDx=0;exitDy=0;exitPerimeter=0;entryX=0.116;entryY=0.067;entryDx=0;entryDy=0;entryPerimeter=0;" edge="1" parent="1" source="EnFBxIm6WWmgzFql9sqj-23" target="EnFBxIm6WWmgzFql9sqj-27">
          <mxGeometry width="80" relative="1" as="geometry">
            <mxPoint x="410" y="710" as="sourcePoint" />
            <mxPoint x="490" y="710" as="targetPoint" />
            <Array as="points" />
          </mxGeometry>
        </mxCell>
        <mxCell id="EnFBxIm6WWmgzFql9sqj-40" value="" style="endArrow=classic;html=1;rounded=0;exitX=1;exitY=0.25;exitDx=0;exitDy=0;" edge="1" parent="1" source="EnFBxIm6WWmgzFql9sqj-15">
          <mxGeometry width="50" height="50" relative="1" as="geometry">
            <mxPoint x="390" y="730" as="sourcePoint" />
            <mxPoint x="460" y="765" as="targetPoint" />
          </mxGeometry>
        </mxCell>
        <mxCell id="EnFBxIm6WWmgzFql9sqj-41" value="" style="endArrow=classic;html=1;rounded=0;entryX=1;entryY=0.5;entryDx=0;entryDy=0;" edge="1" parent="1" target="EnFBxIm6WWmgzFql9sqj-15">
          <mxGeometry width="50" height="50" relative="1" as="geometry">
            <mxPoint x="450" y="770" as="sourcePoint" />
            <mxPoint x="440" y="680" as="targetPoint" />
          </mxGeometry>
        </mxCell>
      </root>
    </mxGraphModel>
  </diagram>
</mxfile>
